<svg xmlns="http://www.w3.org/2000/svg" xmlns:xlink="http://www.w3.org/1999/xlink" width="150" zoomAndPan="magnify" viewBox="0 0 112.5 112.499997" height="150" preserveAspectRatio="xMidYMid meet" version="1.0"><defs><clipPath id="4e0244260c"><path d="M 0 0 L 112.003906 0 L 112.003906 112.003906 L 0 112.003906 Z M 0 0 " clip-rule="nonzero"/></clipPath><clipPath id="a621248db9"><path d="M 2 2 L 112.003906 2 L 112.003906 112.003906 L 2 112.003906 Z M 2 2 " clip-rule="nonzero"/></clipPath><clipPath id="ebcfa02a99"><path d="M 0 0 L 112.003906 0 L 112.003906 112.003906 L 0 112.003906 Z M 0 0 " clip-rule="nonzero"/></clipPath></defs><g clip-path="url(#4e0244260c)"><path fill="#ffffff" d="M 0 0 L 112.003906 0 L 112.003906 112.003906 L 0 112.003906 Z M 0 0 " fill-opacity="1" fill-rule="nonzero"/><path fill="#ffffff" d="M 0 0 L 112.003906 0 L 112.003906 112.003906 L 0 112.003906 Z M 0 0 " fill-opacity="1" fill-rule="nonzero"/></g><g clip-path="url(#a621248db9)"><path fill="#000000" d="M 112.003906 57.246094 C 112.003906 59.039062 111.914062 60.828125 111.738281 62.613281 C 111.5625 64.398438 111.300781 66.167969 110.949219 67.929688 C 110.601562 69.6875 110.164062 71.425781 109.644531 73.140625 C 109.125 74.855469 108.519531 76.542969 107.835938 78.199219 C 107.148438 79.855469 106.382812 81.476562 105.535156 83.058594 C 104.691406 84.640625 103.769531 86.175781 102.773438 87.667969 C 101.777344 89.15625 100.710938 90.597656 99.574219 91.984375 C 98.433594 93.367188 97.234375 94.695312 95.964844 95.964844 C 94.695312 97.234375 93.367188 98.433594 91.984375 99.574219 C 90.597656 100.710938 89.15625 101.777344 87.667969 102.773438 C 86.175781 103.769531 84.640625 104.691406 83.058594 105.535156 C 81.476562 106.382812 79.855469 107.148438 78.199219 107.835938 C 76.542969 108.519531 74.855469 109.125 73.140625 109.644531 C 71.425781 110.164062 69.6875 110.601562 67.929688 110.949219 C 66.167969 111.300781 64.398438 111.5625 62.613281 111.738281 C 60.828125 111.914062 59.039062 112.003906 57.246094 112.003906 C 55.453125 112.003906 53.664062 111.914062 51.878906 111.738281 C 50.09375 111.5625 48.320312 111.300781 46.5625 110.949219 C 44.804688 110.601562 43.066406 110.164062 41.351562 109.644531 C 39.632812 109.125 37.949219 108.519531 36.292969 107.835938 C 34.632812 107.148438 33.015625 106.382812 31.433594 105.535156 C 29.851562 104.691406 28.316406 103.769531 26.824219 102.773438 C 25.332031 101.777344 23.894531 100.710938 22.507812 99.574219 C 21.121094 98.433594 19.792969 97.234375 18.527344 95.964844 C 17.257812 94.695312 16.054688 93.367188 14.917969 91.984375 C 13.78125 90.597656 12.714844 89.15625 11.71875 87.667969 C 10.722656 86.175781 9.800781 84.640625 8.953125 83.058594 C 8.109375 81.476562 7.34375 79.855469 6.65625 78.199219 C 5.972656 76.542969 5.367188 74.855469 4.847656 73.140625 C 4.324219 71.425781 3.890625 69.6875 3.542969 67.929688 C 3.191406 66.167969 2.929688 64.398438 2.753906 62.613281 C 2.578125 60.828125 2.488281 59.039062 2.488281 57.246094 C 2.488281 55.453125 2.578125 53.664062 2.753906 51.878906 C 2.929688 50.09375 3.191406 48.320312 3.542969 46.5625 C 3.890625 44.804688 4.324219 43.066406 4.847656 41.351562 C 5.367188 39.632812 5.972656 37.949219 6.65625 36.292969 C 7.34375 34.632812 8.109375 33.015625 8.953125 31.433594 C 9.800781 29.851562 10.722656 28.316406 11.71875 26.824219 C 12.714844 25.332031 13.78125 23.894531 14.917969 22.507812 C 16.054688 21.121094 17.257812 19.792969 18.527344 18.527344 C 19.792969 17.257812 21.121094 16.054688 22.507812 14.917969 C 23.894531 13.78125 25.332031 12.714844 26.824219 11.71875 C 28.316406 10.722656 29.851562 9.800781 31.433594 8.953125 C 33.015625 8.109375 34.632812 7.34375 36.292969 6.65625 C 37.949219 5.972656 39.632812 5.367188 41.351562 4.847656 C 43.066406 4.324219 44.804688 3.890625 46.5625 3.542969 C 48.320312 3.191406 50.09375 2.929688 51.878906 2.753906 C 53.664062 2.578125 55.453125 2.488281 57.246094 2.488281 C 59.039062 2.488281 60.828125 2.578125 62.613281 2.753906 C 64.398438 2.929688 66.167969 3.191406 67.929688 3.542969 C 69.6875 3.890625 71.425781 4.324219 73.140625 4.847656 C 74.855469 5.367188 76.542969 5.972656 78.199219 6.65625 C 79.855469 7.34375 81.476562 8.109375 83.058594 8.953125 C 84.640625 9.800781 86.175781 10.722656 87.667969 11.71875 C 89.15625 12.714844 90.597656 13.78125 91.984375 14.917969 C 93.367188 16.054688 94.695312 17.257812 95.964844 18.527344 C 97.234375 19.792969 98.433594 21.121094 99.574219 22.507812 C 100.710938 23.894531 101.777344 25.332031 102.773438 26.824219 C 103.769531 28.316406 104.691406 29.851562 105.535156 31.433594 C 106.382812 33.015625 107.148438 34.632812 107.835938 36.292969 C 108.519531 37.949219 109.125 39.632812 109.644531 41.351562 C 110.164062 43.066406 110.601562 44.804688 110.949219 46.5625 C 111.300781 48.320312 111.5625 50.09375 111.738281 51.878906 C 111.914062 53.664062 112.003906 55.453125 112.003906 57.246094 Z M 112.003906 57.246094 " fill-opacity="0.35" fill-rule="nonzero"/></g><path fill="#f2f2f2" d="M 109.511719 54.757812 C 109.511719 56.550781 109.425781 58.339844 109.25 60.125 C 109.074219 61.910156 108.8125 63.679688 108.460938 65.4375 C 108.109375 67.199219 107.675781 68.933594 107.15625 70.652344 C 106.636719 72.367188 106.03125 74.054688 105.34375 75.710938 C 104.660156 77.367188 103.894531 78.988281 103.046875 80.570312 C 102.203125 82.148438 101.28125 83.6875 100.285156 85.179688 C 99.289062 86.667969 98.222656 88.109375 97.085938 89.492188 C 95.945312 90.878906 94.742188 92.207031 93.476562 93.476562 C 92.207031 94.742188 90.878906 95.945312 89.492188 97.085938 C 88.109375 98.222656 86.667969 99.289062 85.179688 100.285156 C 83.6875 101.28125 82.148438 102.203125 80.570312 103.046875 C 78.988281 103.894531 77.367188 104.660156 75.710938 105.34375 C 74.054688 106.03125 72.367188 106.636719 70.652344 107.15625 C 68.933594 107.675781 67.199219 108.109375 65.4375 108.460938 C 63.679688 108.8125 61.910156 109.074219 60.125 109.25 C 58.339844 109.425781 56.550781 109.511719 54.757812 109.511719 C 52.964844 109.511719 51.175781 109.425781 49.390625 109.25 C 47.605469 109.074219 45.832031 108.8125 44.074219 108.460938 C 42.316406 108.109375 40.578125 107.675781 38.863281 107.15625 C 37.144531 106.636719 35.460938 106.03125 33.800781 105.34375 C 32.144531 104.660156 30.527344 103.894531 28.945312 103.046875 C 27.363281 102.203125 25.828125 101.28125 24.335938 100.285156 C 22.84375 99.289062 21.40625 98.222656 20.019531 97.085938 C 18.632812 95.945312 17.304688 94.742188 16.039062 93.476562 C 14.769531 92.207031 13.566406 90.878906 12.429688 89.492188 C 11.292969 88.109375 10.222656 86.667969 9.226562 85.179688 C 8.230469 83.6875 7.3125 82.148438 6.464844 80.570312 C 5.621094 78.988281 4.855469 77.367188 4.167969 75.710938 C 3.480469 74.054688 2.878906 72.367188 2.359375 70.652344 C 1.835938 68.933594 1.402344 67.199219 1.050781 65.4375 C 0.703125 63.679688 0.4375 61.910156 0.261719 60.125 C 0.0859375 58.339844 0 56.550781 0 54.757812 C 0 52.964844 0.0859375 51.175781 0.261719 49.390625 C 0.4375 47.605469 0.703125 45.832031 1.050781 44.074219 C 1.402344 42.316406 1.835938 40.578125 2.359375 38.863281 C 2.878906 37.144531 3.480469 35.460938 4.167969 33.800781 C 4.855469 32.144531 5.621094 30.527344 6.464844 28.945312 C 7.3125 27.363281 8.230469 25.828125 9.226562 24.335938 C 10.222656 22.84375 11.292969 21.40625 12.429688 20.019531 C 13.566406 18.632812 14.769531 17.304688 16.039062 16.039062 C 17.304688 14.769531 18.632812 13.566406 20.019531 12.429688 C 21.40625 11.292969 22.84375 10.222656 24.335938 9.226562 C 25.828125 8.230469 27.363281 7.3125 28.945312 6.464844 C 30.527344 5.621094 32.144531 4.855469 33.800781 4.167969 C 35.460938 3.480469 37.144531 2.878906 38.863281 2.359375 C 40.578125 1.835938 42.316406 1.402344 44.074219 1.050781 C 45.832031 0.703125 47.605469 0.4375 49.390625 0.261719 C 51.175781 0.0859375 52.964844 0 54.757812 0 C 56.550781 0 58.339844 0.0859375 60.125 0.261719 C 61.910156 0.4375 63.679688 0.703125 65.4375 1.050781 C 67.199219 1.402344 68.933594 1.835938 70.652344 2.359375 C 72.367188 2.878906 74.054688 3.480469 75.710938 4.167969 C 77.367188 4.855469 78.988281 5.621094 80.570312 6.464844 C 82.148438 7.3125 83.6875 8.230469 85.179688 9.226562 C 86.667969 10.222656 88.109375 11.292969 89.492188 12.429688 C 90.878906 13.566406 92.207031 14.769531 93.476562 16.039062 C 94.742188 17.304688 95.945312 18.632812 97.085938 20.019531 C 98.222656 21.40625 99.289062 22.84375 100.285156 24.335938 C 101.28125 25.828125 102.203125 27.363281 103.046875 28.945312 C 103.894531 30.527344 104.660156 32.144531 105.34375 33.800781 C 106.03125 35.460938 106.636719 37.144531 107.15625 38.863281 C 107.675781 40.578125 108.109375 42.316406 108.460938 44.074219 C 108.8125 45.832031 109.074219 47.605469 109.25 49.390625 C 109.425781 51.175781 109.511719 52.964844 109.511719 54.757812 Z M 109.511719 54.757812 " fill-opacity="1" fill-rule="nonzero"/><path fill="#f2f2f2" d="M 54.757812 105.78125 C 26.621094 105.78125 3.734375 82.890625 3.734375 54.757812 C 3.734375 26.621094 26.621094 3.734375 54.757812 3.734375 C 82.890625 3.734375 105.78125 26.621094 105.78125 54.757812 C 105.78125 82.890625 82.890625 105.78125 54.757812 105.78125 Z M 54.757812 105.78125 " fill-opacity="1" fill-rule="nonzero"/><path fill="#d9eeff" d="M 102.109375 54.789062 C 102.109375 56.339844 102.035156 57.886719 101.882812 59.425781 C 101.730469 60.96875 101.503906 62.5 101.203125 64.019531 C 100.898438 65.542969 100.523438 67.042969 100.074219 68.527344 C 99.625 70.007812 99.101562 71.464844 98.507812 72.898438 C 97.914062 74.332031 97.253906 75.730469 96.523438 77.097656 C 95.792969 78.464844 94.996094 79.792969 94.136719 81.078125 C 93.273438 82.367188 92.351562 83.613281 91.371094 84.808594 C 90.386719 86.007812 89.347656 87.15625 88.25 88.25 C 87.15625 89.347656 86.007812 90.386719 84.808594 91.371094 C 83.613281 92.351562 82.367188 93.273438 81.078125 94.136719 C 79.792969 94.996094 78.464844 95.792969 77.097656 96.523438 C 75.730469 97.253906 74.332031 97.914062 72.898438 98.507812 C 71.464844 99.101562 70.007812 99.625 68.527344 100.074219 C 67.042969 100.523438 65.542969 100.898438 64.019531 101.203125 C 62.5 101.503906 60.96875 101.730469 59.425781 101.882812 C 57.886719 102.035156 56.339844 102.109375 54.789062 102.109375 C 53.238281 102.109375 51.691406 102.035156 50.152344 101.882812 C 48.609375 101.730469 47.078125 101.503906 45.558594 101.203125 C 44.035156 100.898438 42.535156 100.523438 41.050781 100.074219 C 39.570312 99.625 38.113281 99.101562 36.679688 98.507812 C 35.246094 97.914062 33.847656 97.253906 32.480469 96.523438 C 31.113281 95.792969 29.785156 94.996094 28.5 94.136719 C 27.210938 93.273438 25.964844 92.351562 24.769531 91.371094 C 23.570312 90.386719 22.421875 89.347656 21.328125 88.25 C 20.230469 87.15625 19.191406 86.007812 18.207031 84.808594 C 17.226562 83.613281 16.304688 82.367188 15.441406 81.078125 C 14.582031 79.792969 13.785156 78.464844 13.054688 77.097656 C 12.324219 75.730469 11.660156 74.332031 11.070312 72.898438 C 10.476562 71.464844 9.953125 70.007812 9.503906 68.527344 C 9.054688 67.042969 8.679688 65.542969 8.375 64.019531 C 8.074219 62.5 7.847656 60.96875 7.695312 59.425781 C 7.542969 57.886719 7.46875 56.339844 7.46875 54.789062 C 7.46875 53.238281 7.542969 51.691406 7.695312 50.152344 C 7.847656 48.609375 8.074219 47.078125 8.375 45.558594 C 8.679688 44.035156 9.054688 42.535156 9.503906 41.050781 C 9.953125 39.570312 10.476562 38.113281 11.070312 36.679688 C 11.660156 35.246094 12.324219 33.847656 13.054688 32.480469 C 13.785156 31.113281 14.582031 29.785156 15.441406 28.5 C 16.304688 27.210938 17.226562 25.964844 18.207031 24.769531 C 19.191406 23.570312 20.230469 22.421875 21.328125 21.328125 C 22.421875 20.230469 23.570312 19.191406 24.769531 18.207031 C 25.964844 17.226562 27.210938 16.304688 28.5 15.441406 C 29.785156 14.582031 31.113281 13.785156 32.480469 13.054688 C 33.847656 12.324219 35.246094 11.660156 36.679688 11.070312 C 38.113281 10.476562 39.570312 9.953125 41.050781 9.503906 C 42.535156 9.054688 44.035156 8.679688 45.558594 8.375 C 47.078125 8.074219 48.609375 7.847656 50.152344 7.695312 C 51.691406 7.542969 53.238281 7.46875 54.789062 7.46875 C 56.339844 7.46875 57.886719 7.542969 59.425781 7.695312 C 60.96875 7.847656 62.5 8.074219 64.019531 8.375 C 65.542969 8.679688 67.042969 9.054688 68.527344 9.503906 C 70.007812 9.953125 71.464844 10.476562 72.898438 11.070312 C 74.332031 11.660156 75.730469 12.324219 77.097656 13.054688 C 78.464844 13.785156 79.792969 14.582031 81.078125 15.441406 C 82.367188 16.304688 83.613281 17.226562 84.808594 18.207031 C 86.007812 19.191406 87.15625 20.230469 88.25 21.328125 C 89.347656 22.421875 90.386719 23.570312 91.371094 24.769531 C 92.351562 25.964844 93.273438 27.210938 94.136719 28.5 C 94.996094 29.785156 95.792969 31.113281 96.523438 32.480469 C 97.253906 33.847656 97.914062 35.246094 98.507812 36.679688 C 99.101562 38.113281 99.625 39.570312 100.074219 41.050781 C 100.523438 42.535156 100.898438 44.035156 101.203125 45.558594 C 101.503906 47.078125 101.730469 48.609375 101.882812 50.152344 C 102.035156 51.691406 102.109375 53.238281 102.109375 54.789062 Z M 102.109375 54.789062 " fill-opacity="1" fill-rule="nonzero"/><path fill="#ffc7a3" d="M 82.855469 86.121094 C 82.851562 86.070312 82.84375 86.023438 82.835938 85.972656 C 82.8125 85.722656 82.78125 85.476562 82.738281 85.230469 C 82.734375 85.203125 82.726562 85.171875 82.722656 85.144531 C 82.671875 84.875 82.613281 84.609375 82.542969 84.34375 C 82.542969 84.339844 82.539062 84.332031 82.539062 84.328125 C 81.667969 81.035156 79.230469 78.503906 75.914062 77.328125 L 63.46875 72.792969 L 63.46875 67.171875 C 63.46875 67.171875 67.203125 63.46875 67.457031 57.246094 C 67.457031 57.25 67.464844 57.257812 67.46875 57.265625 C 68.183594 58.75 70.074219 59.003906 71.523438 57.390625 C 73.152344 55.574219 74.269531 51.535156 72.605469 49.410156 C 71.53125 48.039062 69.632812 48.398438 69.304688 49.625 C 69.796875 47.042969 69.570312 45.378906 69.570312 43.304688 C 69.570312 33.863281 63.164062 28.160156 54.757812 28.160156 C 46.347656 28.160156 39.945312 33.863281 39.945312 43.304688 C 39.945312 45.382812 39.640625 47.050781 40.128906 49.628906 C 39.800781 48.402344 38.042969 48.039062 36.96875 49.410156 C 35.308594 51.535156 36.257812 55.671875 37.988281 57.390625 C 39.601562 58.996094 41.304688 58.742188 42.023438 57.253906 C 42.027344 57.25 42.03125 57.242188 42.035156 57.238281 C 42.3125 63.46875 46.046875 67.203125 46.046875 67.203125 L 46.039062 72.761719 L 33.601562 77.125 C 30.28125 78.300781 27.84375 81.03125 26.972656 84.328125 C 26.972656 84.332031 26.96875 84.339844 26.96875 84.34375 C 26.902344 84.609375 26.839844 84.875 26.792969 85.144531 C 26.789062 85.171875 26.78125 85.199219 26.773438 85.230469 C 26.734375 85.476562 26.699219 85.722656 26.675781 85.972656 C 26.671875 86.023438 26.664062 86.070312 26.660156 86.121094 C 26.632812 86.414062 26.621094 87.003906 26.621094 87.003906 L 82.894531 87.003906 C 82.894531 86.707031 82.878906 86.414062 82.855469 86.121094 Z M 82.855469 86.121094 " fill-opacity="1" fill-rule="nonzero"/><path fill="#40396e" d="M 67.867188 41.46875 C 66.292969 45.070312 68.039062 49.121094 68.039062 49.121094 L 69.515625 47.746094 L 69.824219 41.46875 C 69.828125 41.46875 68.191406 40.726562 67.867188 41.46875 Z M 67.867188 41.46875 " fill-opacity="1" fill-rule="nonzero"/><path fill="#40396e" d="M 41.636719 41.46875 C 43.207031 45.070312 41.515625 49.019531 41.515625 49.019531 L 39.984375 47.746094 L 39.675781 41.46875 C 39.675781 41.46875 41.308594 40.726562 41.636719 41.46875 Z M 41.636719 41.46875 " fill-opacity="1" fill-rule="nonzero"/><path fill="#40396e" d="M 54.757812 69.691406 C 59.734375 69.691406 63.46875 67.203125 63.46875 67.203125 C 63.46875 67.203125 60.980469 73.421875 54.757812 73.421875 C 48.535156 73.421875 46.046875 67.203125 46.046875 67.203125 C 46.046875 67.203125 49.777344 69.691406 54.757812 69.691406 Z M 54.757812 69.691406 " fill-opacity="0.35" fill-rule="nonzero"/><path fill="#40396e" d="M 69.085938 49.785156 C 69.015625 49.785156 68.941406 49.777344 68.867188 49.761719 C 68.242188 49.644531 67.828125 49.035156 67.949219 48.410156 C 68.394531 46.0625 68.640625 44.707031 68.640625 42.65625 C 68.640625 34.421875 62.800781 28.445312 54.757812 28.445312 C 54.117188 28.445312 53.597656 27.925781 53.597656 27.289062 C 53.597656 26.648438 54.117188 26.128906 54.757812 26.128906 C 64.140625 26.128906 70.953125 33.082031 70.953125 42.65625 C 70.953125 44.890625 70.695312 46.355469 70.222656 48.839844 C 70.117188 49.398438 69.628906 49.785156 69.085938 49.785156 Z M 69.085938 49.785156 " fill-opacity="1" fill-rule="nonzero"/><path fill="#40396e" d="M 40.425781 49.789062 C 39.882812 49.789062 39.398438 49.402344 39.292969 48.847656 C 38.816406 46.363281 38.5625 44.890625 38.5625 42.65625 C 38.5625 33.082031 45.371094 26.132812 54.757812 26.132812 C 55.394531 26.132812 55.914062 26.648438 55.914062 27.289062 C 55.914062 27.929688 55.394531 28.445312 54.757812 28.445312 C 46.714844 28.445312 40.875 34.421875 40.875 42.660156 C 40.875 44.707031 41.117188 46.070312 41.5625 48.417969 C 41.683594 49.042969 41.273438 49.652344 40.644531 49.769531 C 40.570312 49.785156 40.5 49.789062 40.425781 49.789062 Z M 40.425781 49.789062 " fill-opacity="1" fill-rule="nonzero"/><path fill="#40396e" d="M 39.253906 48.65625 C 39.253906 48.65625 40.917969 43.707031 42.511719 43.308594 C 42.511719 43.308594 62.039062 42.117188 63.601562 32.167969 C 65.28125 21.460938 52.019531 23.480469 48.269531 24.484375 C 44.980469 25.363281 32.640625 32.117188 39.253906 48.65625 Z M 39.253906 48.65625 " fill-opacity="1" fill-rule="nonzero"/><path fill="#40396e" d="M 61.996094 33.953125 C 61.996094 33.953125 61.71875 36.796875 67.015625 43.304688 L 70.257812 48.640625 C 70.257812 48.640625 77.863281 30.945312 62.898438 27.265625 Z M 61.996094 33.953125 " fill-opacity="1" fill-rule="nonzero"/><path fill="#707cc0" d="M 82.855469 86.121094 C 82.851562 86.070312 82.84375 86.023438 82.835938 85.972656 C 82.8125 85.722656 82.78125 85.476562 82.738281 85.230469 C 82.734375 85.203125 82.726562 85.171875 82.722656 85.144531 C 82.671875 84.875 82.613281 84.609375 82.542969 84.34375 C 82.542969 84.339844 82.539062 84.332031 82.539062 84.328125 C 81.667969 81.035156 79.230469 78.503906 75.914062 77.328125 L 66.410156 74.019531 C 64.652344 78.753906 60.105469 82.136719 54.757812 82.136719 C 49.382812 82.136719 44.816406 78.722656 43.074219 73.949219 L 33.601562 77.125 C 30.28125 78.300781 27.84375 81.035156 26.972656 84.328125 C 26.972656 84.332031 26.96875 84.339844 26.96875 84.34375 C 26.898438 84.609375 26.839844 84.875 26.789062 85.144531 C 26.785156 85.171875 26.777344 85.199219 26.773438 85.230469 C 26.730469 85.476562 26.699219 85.722656 26.675781 85.972656 C 26.671875 86.023438 26.660156 86.070312 26.65625 86.121094 C 26.632812 86.414062 26.132812 93.335938 26.132812 93.335938 L 41.066406 100.800781 L 54.789062 102.113281 L 69.691406 100.800781 L 83.378906 93.335938 L 82.894531 87.003906 C 82.894531 86.707031 82.878906 86.414062 82.855469 86.121094 Z M 82.855469 86.121094 " fill-opacity="1" fill-rule="nonzero"/><g clip-path="url(#ebcfa02a99)"><path stroke-linecap="butt" transform="matrix(1.244469, 0, 0, 1.244469, -7.466812, -7.466813)" fill="none" stroke-linejoin="miter" d="M 87.50126 50.00095 C 87.50126 51.228256 87.438482 52.452422 87.319204 53.676589 C 87.199927 54.897617 87.017871 56.112367 86.779315 57.314562 C 86.54076 58.519895 86.242565 59.709534 85.884732 60.886618 C 85.530037 62.060563 85.115704 63.215674 84.644871 64.351952 C 84.174037 65.485091 83.649843 66.593119 83.072287 67.676036 C 82.491593 68.762091 81.863815 69.813619 81.179537 70.833758 C 80.498398 71.853897 79.767037 72.839508 78.988592 73.790592 C 78.210148 74.738536 77.38462 75.648814 76.515147 76.515148 C 75.648814 77.38462 74.738536 78.210148 73.790591 78.988593 C 72.839508 79.767037 71.853897 80.498398 70.833758 81.179537 C 69.813619 81.863815 68.762091 82.491593 67.676035 83.072288 C 66.593118 83.649843 65.48509 84.174038 64.351951 84.644871 C 63.215673 85.115704 62.060562 85.530038 60.886618 85.884732 C 59.709534 86.242566 58.519895 86.54076 57.314562 86.779316 C 56.112367 87.017871 54.897617 87.199927 53.676589 87.319205 C 52.452422 87.438483 51.228255 87.50126 50.000949 87.50126 C 48.770505 87.50126 47.546338 87.438483 46.32531 87.319205 C 45.101143 87.199927 43.889532 87.017871 42.684198 86.779316 C 41.478865 86.54076 40.289226 86.242566 39.115281 85.884732 C 37.938198 85.530038 36.783087 85.115704 35.649948 84.644871 C 34.51367 84.174038 33.405642 83.649843 32.322725 83.072288 C 31.239808 82.491593 30.18828 81.863815 29.165002 81.179537 C 28.144863 80.498398 27.159252 79.767037 26.211307 78.988593 C 25.260224 78.210148 24.353085 77.38462 23.483613 76.515148 C 22.61414 75.648814 21.791751 74.738536 21.013307 73.790592 C 20.231723 72.839508 19.503501 71.853897 18.819223 70.833758 C 18.138084 69.813619 17.507167 68.762091 16.926473 67.676036 C 16.348917 66.593119 15.824723 65.485091 15.353889 64.351952 C 14.883056 63.215674 14.471861 62.060563 14.114028 60.886618 C 13.759334 59.709534 13.461139 58.519895 13.219445 57.314562 C 12.980889 56.112367 12.801972 54.897617 12.679556 53.676589 C 12.560278 52.452422 12.500639 51.228256 12.500639 50.00095 C 12.500639 48.770505 12.560278 47.546338 12.679556 46.32531 C 12.801972 45.101144 12.980889 43.889532 13.219445 42.684199 C 13.461139 41.478865 13.759334 40.289226 14.114028 39.115282 C 14.471861 37.938198 14.883056 36.783087 15.353889 35.649948 C 15.824723 34.51367 16.348917 33.405642 16.926473 32.322725 C 17.507167 31.239808 18.138084 30.188281 18.819223 29.165003 C 19.503501 28.144864 20.231723 27.159252 21.013307 26.211308 C 21.791751 25.260224 22.61414 24.353085 23.483613 23.483613 C 24.353085 22.614141 25.260224 21.791752 26.211307 21.013307 C 27.159252 20.231724 28.144863 19.503501 29.165002 18.819224 C 30.18828 18.138085 31.239808 17.507168 32.322725 16.926473 C 33.405642 16.348918 34.51367 15.824723 35.649948 15.35389 C 36.783087 14.883056 37.938198 14.471862 39.115281 14.114028 C 40.289226 13.759334 41.478865 13.461139 42.684198 13.219445 C 43.889532 12.980889 45.101143 12.801973 46.32531 12.679556 C 47.546338 12.560278 48.770505 12.500639 50.000949 12.500639 C 51.228255 12.500639 52.452422 12.560278 53.676589 12.679556 C 54.897617 12.801973 56.112367 12.980889 57.314562 13.219445 C 58.519895 13.461139 59.709534 13.759334 60.886618 14.114028 C 62.060562 14.471862 63.215673 14.883056 64.351951 15.35389 C 65.48509 15.824723 66.593118 16.348918 67.676035 16.926473 C 68.762091 17.507168 69.813619 18.138085 70.833758 18.819224 C 71.853897 19.503501 72.839508 20.231724 73.790591 21.013307 C 74.738536 21.791752 75.648814 22.614141 76.515147 23.483613 C 77.38462 24.353085 78.210148 25.260224 78.988592 26.211308 C 79.767037 27.159252 80.498398 28.144864 81.179537 29.165003 C 81.863815 30.188281 82.491593 31.239808 83.072287 32.322725 C 83.649843 33.405642 84.174037 34.51367 84.644871 35.649948 C 85.115704 36.783087 85.530037 37.938198 85.884732 39.115282 C 86.242565 40.289226 86.54076 41.478865 86.779315 42.684199 C 87.017871 43.889532 87.199927 45.101144 87.319204 46.32531 C 87.438482 47.546338 87.50126 48.770505 87.50126 50.00095 Z M 87.50126 50.00095 " stroke="#40396e" stroke-width="3" stroke-opacity="1" stroke-miterlimit="10"/></g></svg>