<svg xmlns="http://www.w3.org/2000/svg" xmlns:xlink="http://www.w3.org/1999/xlink" width="150" zoomAndPan="magnify" viewBox="0 0 112.5 112.499997" height="150" preserveAspectRatio="xMidYMid meet" version="1.0"><defs><clipPath id="76887796fe"><path d="M 0 0 L 112.003906 0 L 112.003906 112.003906 L 0 112.003906 Z M 0 0 " clip-rule="nonzero"/></clipPath><clipPath id="ece3438a2c"><path d="M 0 30.371094 L 112.003906 30.371094 L 112.003906 112.003906 L 0 112.003906 Z M 0 30.371094 " clip-rule="nonzero"/></clipPath><clipPath id="ad25684460"><path d="M 0 5 L 112.003906 5 L 112.003906 28 L 0 28 Z M 0 5 " clip-rule="nonzero"/></clipPath><clipPath id="063a29c1a3"><path d="M 0 27 L 112.003906 27 L 112.003906 110 L 0 110 Z M 0 27 " clip-rule="nonzero"/></clipPath></defs><g clip-path="url(#76887796fe)"><path fill="#ffffff" d="M 0 0 L 112.003906 0 L 112.003906 112.003906 L 0 112.003906 Z M 0 0 " fill-opacity="1" fill-rule="nonzero"/><path fill="#ffffff" d="M 0 0 L 112.003906 0 L 112.003906 112.003906 L 0 112.003906 Z M 0 0 " fill-opacity="1" fill-rule="nonzero"/></g><g clip-path="url(#ece3438a2c)"><path fill="#cccccc" d="M 0 30.511719 L 0 105.855469 C 0 109.636719 3.058594 112.703125 6.828125 112.703125 L 105.171875 112.703125 C 108.945312 112.703125 112.003906 109.636719 112.003906 105.855469 L 112.003906 30.511719 L 0 30.511719 " fill-opacity="1" fill-rule="nonzero"/></g><g clip-path="url(#ad25684460)"><path fill="#ff4560" d="M 98.34375 22.292969 C 95.324219 22.292969 92.878906 19.839844 92.878906 16.816406 C 92.878906 13.789062 95.324219 11.335938 98.34375 11.335938 C 101.359375 11.335938 103.808594 13.789062 103.808594 16.816406 C 103.808594 19.839844 101.359375 22.292969 98.34375 22.292969 Z M 54.636719 22.292969 C 51.617188 22.292969 49.171875 19.839844 49.171875 16.816406 C 49.171875 13.789062 51.617188 11.335938 54.636719 11.335938 C 57.652344 11.335938 60.097656 13.789062 60.097656 16.816406 C 60.097656 19.839844 57.652344 22.292969 54.636719 22.292969 Z M 13.660156 22.292969 C 10.640625 22.292969 8.195312 19.839844 8.195312 16.816406 C 8.195312 13.789062 10.640625 11.335938 13.660156 11.335938 C 16.675781 11.335938 19.121094 13.789062 19.121094 16.816406 C 19.121094 19.839844 16.675781 22.292969 13.660156 22.292969 Z M 105.171875 5.855469 L 6.828125 5.855469 C 3.058594 5.855469 0 8.921875 0 12.707031 L 0 27.773438 L 112.003906 27.773438 L 112.003906 12.707031 C 112.003906 8.921875 108.945312 5.855469 105.171875 5.855469 " fill-opacity="1" fill-rule="nonzero"/></g><g clip-path="url(#063a29c1a3)"><path fill="#f2f1f6" d="M 0 27.773438 L 0 103.117188 C 0 106.898438 3.058594 109.964844 6.828125 109.964844 L 105.171875 109.964844 C 108.945312 109.964844 112.003906 106.898438 112.003906 103.117188 L 112.003906 27.773438 L 0 27.773438 " fill-opacity="1" fill-rule="nonzero"/></g><path fill="#c63226" d="M 13.660156 22.292969 C 10.640625 22.292969 8.195312 19.839844 8.195312 16.816406 C 8.195312 13.789062 10.640625 11.335938 13.660156 11.335938 C 16.675781 11.335938 19.121094 13.789062 19.121094 16.816406 C 19.121094 19.839844 16.675781 22.292969 13.660156 22.292969 Z M 13.660156 8.59375 C 9.132812 8.59375 5.464844 12.273438 5.464844 16.816406 C 5.464844 21.355469 9.132812 25.035156 13.660156 25.035156 C 18.183594 25.035156 21.855469 21.355469 21.855469 16.816406 C 21.855469 12.273438 18.183594 8.59375 13.660156 8.59375 " fill-opacity="1" fill-rule="nonzero"/><path fill="#c63226" d="M 54.636719 22.292969 C 51.617188 22.292969 49.171875 19.839844 49.171875 16.816406 C 49.171875 13.789062 51.617188 11.335938 54.636719 11.335938 C 57.652344 11.335938 60.097656 13.789062 60.097656 16.816406 C 60.097656 19.839844 57.652344 22.292969 54.636719 22.292969 Z M 54.636719 8.59375 C 50.109375 8.59375 46.441406 12.273438 46.441406 16.816406 C 46.441406 21.355469 50.109375 25.035156 54.636719 25.035156 C 59.160156 25.035156 62.832031 21.355469 62.832031 16.816406 C 62.832031 12.273438 59.160156 8.59375 54.636719 8.59375 " fill-opacity="1" fill-rule="nonzero"/><path fill="#c63226" d="M 98.34375 22.292969 C 95.324219 22.292969 92.878906 19.839844 92.878906 16.816406 C 92.878906 13.789062 95.324219 11.335938 98.34375 11.335938 C 101.359375 11.335938 103.808594 13.789062 103.808594 16.816406 C 103.808594 19.839844 101.359375 22.292969 98.34375 22.292969 Z M 98.34375 8.59375 C 93.816406 8.59375 90.148438 12.273438 90.148438 16.816406 C 90.148438 21.355469 93.816406 25.035156 98.34375 25.035156 C 102.871094 25.035156 106.539062 21.355469 106.539062 16.816406 C 106.539062 12.273438 102.871094 8.59375 98.34375 8.59375 " fill-opacity="1" fill-rule="nonzero"/><path fill="#e6e6e6" d="M 9.457031 4.242188 L 9.457031 16.664062 C 9.457031 18.984375 11.332031 20.863281 13.644531 20.863281 L 13.644531 0.0429688 C 11.332031 0.0429688 9.457031 1.921875 9.457031 4.242188 " fill-opacity="1" fill-rule="nonzero"/><path fill="#f2f2f2" d="M 13.644531 0.0429688 L 13.644531 20.863281 C 15.957031 20.863281 17.832031 18.984375 17.832031 16.664062 L 17.832031 4.242188 C 17.832031 1.921875 15.957031 0.0429688 13.644531 0.0429688 " fill-opacity="1" fill-rule="nonzero"/><path fill="#e6e6e6" d="M 50.429688 4.242188 L 50.429688 16.664062 C 50.429688 18.984375 52.308594 20.863281 54.621094 20.863281 L 54.621094 0.0429688 C 52.308594 0.0429688 50.429688 1.921875 50.429688 4.242188 " fill-opacity="1" fill-rule="nonzero"/><path fill="#f2f2f2" d="M 54.621094 0.0429688 L 54.621094 20.863281 C 56.933594 20.863281 58.808594 18.984375 58.808594 16.664062 L 58.808594 4.242188 C 58.808594 1.921875 56.933594 0.0429688 54.621094 0.0429688 " fill-opacity="1" fill-rule="nonzero"/><path fill="#e6e6e6" d="M 94.140625 4.242188 L 94.140625 16.664062 C 94.140625 18.984375 96.015625 20.863281 98.328125 20.863281 L 98.328125 0.0429688 C 96.015625 0.0429688 94.140625 1.921875 94.140625 4.242188 " fill-opacity="1" fill-rule="nonzero"/><path fill="#f2f2f2" d="M 98.328125 0.0429688 L 98.328125 20.863281 C 100.640625 20.863281 102.515625 18.984375 102.515625 16.664062 L 102.515625 4.242188 C 102.515625 1.921875 100.640625 0.0429688 98.328125 0.0429688 " fill-opacity="1" fill-rule="nonzero"/><path fill="#cccccc" d="M 24.003906 50.820312 L 8.847656 50.820312 L 8.847656 38.839844 L 24.003906 38.839844 L 24.003906 50.820312 " fill-opacity="1" fill-rule="nonzero"/><path fill="#cccccc" d="M 43.21875 50.820312 L 28.0625 50.820312 L 28.0625 38.839844 L 43.21875 38.839844 L 43.21875 50.820312 " fill-opacity="1" fill-rule="nonzero"/><path fill="#cccccc" d="M 62.433594 50.820312 L 47.273438 50.820312 L 47.273438 38.839844 L 62.433594 38.839844 L 62.433594 50.820312 " fill-opacity="1" fill-rule="nonzero"/><path fill="#cccccc" d="M 81.644531 50.820312 L 66.488281 50.820312 L 66.488281 38.839844 L 81.644531 38.839844 L 81.644531 50.820312 " fill-opacity="1" fill-rule="nonzero"/><path fill="#cccccc" d="M 100.859375 50.820312 L 85.703125 50.820312 L 85.703125 38.839844 L 100.859375 38.839844 L 100.859375 50.820312 " fill-opacity="1" fill-rule="nonzero"/><path fill="#cccccc" d="M 24.003906 66.019531 L 8.847656 66.019531 L 8.847656 54.039062 L 24.003906 54.039062 L 24.003906 66.019531 " fill-opacity="1" fill-rule="nonzero"/><path fill="#cccccc" d="M 43.21875 66.019531 L 28.0625 66.019531 L 28.0625 54.039062 L 43.21875 54.039062 L 43.21875 66.019531 " fill-opacity="1" fill-rule="nonzero"/><path fill="#cccccc" d="M 62.433594 66.019531 L 47.273438 66.019531 L 47.273438 54.039062 L 62.433594 54.039062 L 62.433594 66.019531 " fill-opacity="1" fill-rule="nonzero"/><path fill="#cccccc" d="M 81.644531 66.019531 L 66.488281 66.019531 L 66.488281 54.039062 L 81.644531 54.039062 L 81.644531 66.019531 " fill-opacity="1" fill-rule="nonzero"/><path fill="#cccccc" d="M 100.859375 66.019531 L 85.703125 66.019531 L 85.703125 54.039062 L 100.859375 54.039062 L 100.859375 66.019531 " fill-opacity="1" fill-rule="nonzero"/><path fill="#cccccc" d="M 24.003906 81.222656 L 8.847656 81.222656 L 8.847656 69.242188 L 24.003906 69.242188 L 24.003906 81.222656 " fill-opacity="1" fill-rule="nonzero"/><path fill="#cccccc" d="M 43.21875 81.222656 L 28.0625 81.222656 L 28.0625 69.242188 L 43.21875 69.242188 L 43.21875 81.222656 " fill-opacity="1" fill-rule="nonzero"/><path fill="#cccccc" d="M 62.433594 81.222656 L 47.273438 81.222656 L 47.273438 69.242188 L 62.433594 69.242188 L 62.433594 81.222656 " fill-opacity="1" fill-rule="nonzero"/><path fill="#cccccc" d="M 81.644531 81.222656 L 66.488281 81.222656 L 66.488281 69.242188 L 81.644531 69.242188 L 81.644531 81.222656 " fill-opacity="1" fill-rule="nonzero"/><path fill="#cccccc" d="M 100.859375 81.222656 L 85.703125 81.222656 L 85.703125 69.242188 L 100.859375 69.242188 L 100.859375 81.222656 " fill-opacity="1" fill-rule="nonzero"/><path fill="#cccccc" d="M 24.003906 96.421875 L 8.847656 96.421875 L 8.847656 84.441406 L 24.003906 84.441406 L 24.003906 96.421875 " fill-opacity="1" fill-rule="nonzero"/><path fill="#cccccc" d="M 43.21875 96.421875 L 28.0625 96.421875 L 28.0625 84.441406 L 43.21875 84.441406 L 43.21875 96.421875 " fill-opacity="1" fill-rule="nonzero"/><path fill="#cccccc" d="M 62.433594 96.421875 L 47.273438 96.421875 L 47.273438 84.441406 L 62.433594 84.441406 L 62.433594 96.421875 " fill-opacity="1" fill-rule="nonzero"/><path fill="#cccccc" d="M 81.644531 96.421875 L 66.488281 96.421875 L 66.488281 84.441406 L 81.644531 84.441406 L 81.644531 96.421875 " fill-opacity="1" fill-rule="nonzero"/><path fill="#cccccc" d="M 100.859375 96.421875 L 85.703125 96.421875 L 85.703125 84.441406 L 100.859375 84.441406 L 100.859375 96.421875 " fill-opacity="1" fill-rule="nonzero"/><path fill="#ff4560" d="M 87.558594 50.261719 L 83.921875 46.613281 L 73.511719 57.054688 L 69.183594 52.714844 L 65.542969 56.363281 L 72.175781 62.933594 L 73.589844 64.273438 L 87.558594 50.261719 " fill-opacity="1" fill-rule="nonzero"/></svg>