<svg xmlns="http://www.w3.org/2000/svg" xmlns:xlink="http://www.w3.org/1999/xlink" width="150" zoomAndPan="magnify" viewBox="0 0 112.5 112.499997" height="150" preserveAspectRatio="xMidYMid meet" version="1.0"><defs><clipPath id="47d24eda51"><path d="M 0 0 L 112.003906 0 L 112.003906 112.003906 L 0 112.003906 Z M 0 0 " clip-rule="nonzero"/></clipPath><clipPath id="93ef996029"><path d="M 17 0 L 100.894531 0 L 100.894531 112 L 17 112 Z M 17 0 " clip-rule="nonzero"/></clipPath><clipPath id="91b9e477b4"><path d="M 12.039062 0 L 96 0 L 96 112 L 12.039062 112 Z M 12.039062 0 " clip-rule="nonzero"/></clipPath><clipPath id="2190dce09b"><path d="M 12.039062 0 L 100.894531 0 L 100.894531 112.003906 L 12.039062 112.003906 Z M 12.039062 0 " clip-rule="nonzero"/></clipPath><clipPath id="f27ac83498"><path d="M 76 92 L 100.894531 92 L 100.894531 112.003906 L 76 112.003906 Z M 76 92 " clip-rule="nonzero"/></clipPath></defs><g clip-path="url(#47d24eda51)"><path fill="#ffffff" d="M 0 0 L 112.003906 0 L 112.003906 112.003906 L 0 112.003906 Z M 0 0 " fill-opacity="1" fill-rule="nonzero"/><path fill="#ffffff" d="M 0 0 L 112.003906 0 L 112.003906 112.003906 L 0 112.003906 Z M 0 0 " fill-opacity="1" fill-rule="nonzero"/></g><g clip-path="url(#93ef996029)"><path fill="#010101" d="M 17.039062 3.964844 C 17.039062 1.773438 18.816406 0 21.007812 0 L 96.886719 0 C 99.078125 0 100.855469 1.773438 100.855469 3.964844 L 100.855469 97.441406 C 100.855469 98.492188 100.4375 99.5 99.691406 100.246094 L 89.121094 110.804688 C 88.378906 111.546875 87.367188 111.964844 86.316406 111.964844 L 21.007812 111.964844 C 18.816406 111.964844 17.039062 110.191406 17.039062 108 Z M 17.039062 3.964844 " fill-opacity="1" fill-rule="nonzero"/></g><g clip-path="url(#91b9e477b4)"><path fill="#ffffff" d="M 12.082031 3.964844 C 12.082031 1.773438 13.855469 0 16.046875 0 L 91.925781 0 C 94.117188 0 95.894531 1.773438 95.894531 3.964844 L 95.894531 97.441406 C 95.894531 98.492188 95.476562 99.5 94.734375 100.246094 L 84.164062 110.804688 C 83.417969 111.546875 82.410156 111.964844 81.355469 111.964844 L 16.046875 111.964844 C 13.855469 111.964844 12.082031 110.191406 12.082031 108 Z M 12.082031 3.964844 " fill-opacity="1" fill-rule="nonzero"/></g><path fill="#010101" d="M 73.082031 25.761719 C 73.082031 26.28125 73.054688 26.800781 73.003906 27.316406 C 72.953125 27.832031 72.878906 28.34375 72.777344 28.855469 C 72.675781 29.363281 72.550781 29.867188 72.398438 30.363281 C 72.246094 30.859375 72.074219 31.347656 71.875 31.828125 C 71.675781 32.308594 71.453125 32.777344 71.207031 33.234375 C 70.960938 33.691406 70.695312 34.136719 70.40625 34.570312 C 70.117188 35 69.808594 35.417969 69.480469 35.820312 C 69.148438 36.21875 68.800781 36.605469 68.433594 36.972656 C 68.066406 37.339844 67.679688 37.6875 67.28125 38.015625 C 66.878906 38.347656 66.460938 38.65625 66.027344 38.945312 C 65.597656 39.230469 65.152344 39.5 64.691406 39.742188 C 64.234375 39.988281 63.765625 40.210938 63.285156 40.410156 C 62.804688 40.605469 62.316406 40.78125 61.820312 40.933594 C 61.320312 41.082031 60.816406 41.210938 60.308594 41.3125 C 59.796875 41.410156 59.285156 41.488281 58.765625 41.539062 C 58.25 41.589844 57.730469 41.617188 57.210938 41.617188 C 56.691406 41.617188 56.171875 41.589844 55.65625 41.539062 C 55.140625 41.488281 54.625 41.410156 54.117188 41.3125 C 53.605469 41.210938 53.101562 41.082031 52.605469 40.933594 C 52.109375 40.78125 51.617188 40.605469 51.136719 40.410156 C 50.660156 40.210938 50.1875 39.988281 49.730469 39.742188 C 49.273438 39.5 48.828125 39.230469 48.394531 38.945312 C 47.960938 38.65625 47.546875 38.347656 47.144531 38.015625 C 46.742188 37.6875 46.355469 37.339844 45.988281 36.972656 C 45.621094 36.605469 45.273438 36.21875 44.945312 35.820312 C 44.613281 35.417969 44.304688 35 44.015625 34.570312 C 43.726562 34.136719 43.460938 33.691406 43.214844 33.234375 C 42.96875 32.777344 42.75 32.308594 42.550781 31.828125 C 42.351562 31.347656 42.175781 30.859375 42.023438 30.363281 C 41.875 29.867188 41.746094 29.363281 41.648438 28.855469 C 41.546875 28.34375 41.46875 27.832031 41.417969 27.316406 C 41.367188 26.800781 41.339844 26.28125 41.339844 25.761719 C 41.339844 25.242188 41.367188 24.726562 41.417969 24.207031 C 41.46875 23.691406 41.546875 23.179688 41.648438 22.667969 C 41.746094 22.160156 41.875 21.65625 42.023438 21.160156 C 42.175781 20.664062 42.351562 20.175781 42.550781 19.695312 C 42.75 19.214844 42.96875 18.746094 43.214844 18.289062 C 43.460938 17.832031 43.726562 17.386719 44.015625 16.953125 C 44.304688 16.523438 44.613281 16.105469 44.945312 15.703125 C 45.273438 15.304688 45.621094 14.917969 45.988281 14.550781 C 46.355469 14.183594 46.742188 13.835938 47.144531 13.507812 C 47.546875 13.175781 47.960938 12.867188 48.394531 12.582031 C 48.828125 12.292969 49.273438 12.023438 49.730469 11.78125 C 50.1875 11.535156 50.660156 11.3125 51.136719 11.113281 C 51.617188 10.917969 52.109375 10.742188 52.605469 10.589844 C 53.101562 10.441406 53.605469 10.3125 54.117188 10.214844 C 54.625 10.113281 55.140625 10.035156 55.65625 9.984375 C 56.171875 9.933594 56.691406 9.910156 57.210938 9.910156 C 57.730469 9.910156 58.25 9.933594 58.765625 9.984375 C 59.285156 10.035156 59.796875 10.113281 60.308594 10.214844 C 60.816406 10.3125 61.320312 10.441406 61.820312 10.589844 C 62.316406 10.742188 62.804688 10.917969 63.285156 11.113281 C 63.765625 11.3125 64.234375 11.535156 64.691406 11.78125 C 65.152344 12.023438 65.597656 12.292969 66.027344 12.582031 C 66.460938 12.867188 66.878906 13.175781 67.28125 13.507812 C 67.679688 13.835938 68.066406 14.183594 68.433594 14.550781 C 68.800781 14.917969 69.148438 15.304688 69.480469 15.703125 C 69.808594 16.105469 70.117188 16.523438 70.40625 16.953125 C 70.695312 17.386719 70.960938 17.832031 71.207031 18.289062 C 71.453125 18.746094 71.675781 19.214844 71.875 19.695312 C 72.074219 20.175781 72.246094 20.664062 72.398438 21.160156 C 72.550781 21.65625 72.675781 22.160156 72.777344 22.667969 C 72.878906 23.179688 72.953125 23.691406 73.003906 24.207031 C 73.054688 24.726562 73.082031 25.242188 73.082031 25.761719 Z M 73.082031 25.761719 " fill-opacity="1" fill-rule="nonzero"/><path fill="#d0e6fb" d="M 22.496094 55.488281 C 22.496094 53.296875 24.273438 51.523438 26.464844 51.523438 L 81.511719 51.523438 C 83.703125 51.523438 85.480469 53.296875 85.480469 55.488281 L 85.480469 68.367188 C 85.480469 70.558594 83.703125 72.332031 81.511719 72.332031 L 26.464844 72.332031 C 24.273438 72.332031 22.496094 70.558594 22.496094 68.367188 Z M 22.496094 55.488281 " fill-opacity="1" fill-rule="nonzero"/><path fill="#75d95d" d="M 69.859375 25.761719 C 69.859375 26.28125 69.832031 26.800781 69.78125 27.316406 C 69.730469 27.832031 69.65625 28.34375 69.554688 28.855469 C 69.453125 29.363281 69.324219 29.867188 69.175781 30.363281 C 69.023438 30.859375 68.847656 31.347656 68.648438 31.828125 C 68.453125 32.308594 68.230469 32.777344 67.984375 33.234375 C 67.738281 33.691406 67.472656 34.136719 67.183594 34.570312 C 66.894531 35 66.585938 35.417969 66.253906 35.820312 C 65.925781 36.21875 65.578125 36.605469 65.210938 36.972656 C 64.84375 37.339844 64.457031 37.6875 64.054688 38.015625 C 63.652344 38.347656 63.238281 38.65625 62.804688 38.945312 C 62.371094 39.230469 61.925781 39.5 61.46875 39.742188 C 61.011719 39.988281 60.542969 40.210938 60.0625 40.410156 C 59.582031 40.605469 59.09375 40.78125 58.59375 40.933594 C 58.097656 41.082031 57.59375 41.210938 57.085938 41.3125 C 56.574219 41.410156 56.0625 41.488281 55.542969 41.539062 C 55.027344 41.589844 54.507812 41.617188 53.988281 41.617188 C 53.46875 41.617188 52.949219 41.589844 52.433594 41.539062 C 51.914062 41.488281 51.402344 41.410156 50.890625 41.3125 C 50.382812 41.210938 49.878906 41.082031 49.382812 40.933594 C 48.882812 40.78125 48.394531 40.605469 47.914062 40.410156 C 47.433594 40.210938 46.964844 39.988281 46.507812 39.742188 C 46.046875 39.5 45.601562 39.230469 45.171875 38.945312 C 44.738281 38.65625 44.320312 38.347656 43.921875 38.015625 C 43.519531 37.6875 43.132812 37.339844 42.765625 36.972656 C 42.398438 36.605469 42.050781 36.21875 41.71875 35.820312 C 41.390625 35.417969 41.082031 35 40.792969 34.570312 C 40.503906 34.136719 40.238281 33.691406 39.992188 33.234375 C 39.746094 32.777344 39.523438 32.308594 39.324219 31.828125 C 39.128906 31.347656 38.953125 30.859375 38.800781 30.363281 C 38.652344 29.867188 38.523438 29.363281 38.421875 28.855469 C 38.320312 28.34375 38.246094 27.832031 38.195312 27.316406 C 38.144531 26.800781 38.117188 26.28125 38.117188 25.761719 C 38.117188 25.242188 38.144531 24.726562 38.195312 24.207031 C 38.246094 23.691406 38.320312 23.179688 38.421875 22.667969 C 38.523438 22.160156 38.652344 21.65625 38.800781 21.160156 C 38.953125 20.664062 39.128906 20.175781 39.324219 19.695312 C 39.523438 19.214844 39.746094 18.746094 39.992188 18.289062 C 40.238281 17.832031 40.503906 17.386719 40.792969 16.953125 C 41.082031 16.523438 41.390625 16.105469 41.71875 15.703125 C 42.050781 15.304688 42.398438 14.917969 42.765625 14.550781 C 43.132812 14.183594 43.519531 13.835938 43.921875 13.507812 C 44.320312 13.175781 44.738281 12.867188 45.171875 12.582031 C 45.601562 12.292969 46.046875 12.023438 46.507812 11.78125 C 46.964844 11.535156 47.433594 11.3125 47.914062 11.113281 C 48.394531 10.917969 48.882812 10.742188 49.382812 10.589844 C 49.878906 10.441406 50.382812 10.3125 50.890625 10.214844 C 51.402344 10.113281 51.914062 10.035156 52.433594 9.984375 C 52.949219 9.933594 53.46875 9.910156 53.988281 9.910156 C 54.507812 9.910156 55.027344 9.933594 55.542969 9.984375 C 56.0625 10.035156 56.574219 10.113281 57.085938 10.214844 C 57.59375 10.3125 58.097656 10.441406 58.59375 10.589844 C 59.09375 10.742188 59.582031 10.917969 60.0625 11.113281 C 60.542969 11.3125 61.011719 11.535156 61.46875 11.78125 C 61.925781 12.023438 62.371094 12.292969 62.804688 12.582031 C 63.238281 12.867188 63.652344 13.175781 64.054688 13.507812 C 64.457031 13.835938 64.84375 14.183594 65.210938 14.550781 C 65.578125 14.917969 65.925781 15.304688 66.253906 15.703125 C 66.585938 16.105469 66.894531 16.523438 67.183594 16.953125 C 67.472656 17.386719 67.738281 17.832031 67.984375 18.289062 C 68.230469 18.746094 68.453125 19.214844 68.648438 19.695312 C 68.847656 20.175781 69.023438 20.664062 69.175781 21.160156 C 69.324219 21.65625 69.453125 22.160156 69.554688 22.667969 C 69.65625 23.179688 69.730469 23.691406 69.78125 24.207031 C 69.832031 24.726562 69.859375 25.242188 69.859375 25.761719 Z M 69.859375 25.761719 " fill-opacity="1" fill-rule="nonzero"/><path fill="#010101" d="M 53.988281 40.625 C 62.207031 40.625 68.867188 33.96875 68.867188 25.761719 C 68.867188 17.554688 62.207031 10.898438 53.988281 10.898438 C 45.769531 10.898438 39.109375 17.554688 39.109375 25.761719 C 39.109375 33.96875 45.769531 40.625 53.988281 40.625 Z M 53.988281 41.617188 C 62.753906 41.617188 69.859375 34.515625 69.859375 25.761719 C 69.859375 17.007812 62.753906 9.910156 53.988281 9.910156 C 45.222656 9.910156 38.117188 17.007812 38.117188 25.761719 C 38.117188 34.515625 45.222656 41.617188 53.988281 41.617188 Z M 53.988281 41.617188 " fill-opacity="1" fill-rule="evenodd"/><path fill="#ffffff" d="M 49.101562 24.152344 C 48.253906 23.261719 46.828125 23.261719 45.980469 24.152344 C 45.1875 24.984375 45.1875 26.292969 45.980469 27.121094 L 50.25 31.601562 C 51.203125 32.601562 52.804688 32.601562 53.757812 31.601562 L 62.492188 22.441406 C 63.285156 21.609375 63.285156 20.304688 62.492188 19.472656 C 61.640625 18.582031 60.21875 18.582031 59.371094 19.472656 L 52.003906 27.199219 Z M 49.101562 24.152344 " fill-opacity="1" fill-rule="nonzero"/><path fill="#010101" d="M 43.324219 82.238281 C 43.324219 81.964844 43.546875 81.746094 43.820312 81.746094 L 67.128906 81.746094 C 67.40625 81.746094 67.625 81.964844 67.625 82.238281 C 67.625 82.511719 67.40625 82.734375 67.128906 82.734375 L 43.820312 82.734375 C 43.546875 82.734375 43.324219 82.511719 43.324219 82.238281 Z M 43.324219 82.238281 " fill-opacity="1" fill-rule="nonzero"/><path fill="#010101" d="M 43.324219 94.128906 C 43.324219 93.855469 43.546875 93.632812 43.820312 93.632812 L 72.089844 93.632812 C 72.363281 93.632812 72.585938 93.855469 72.585938 94.128906 C 72.585938 94.402344 72.363281 94.625 72.089844 94.625 L 43.820312 94.625 C 43.546875 94.625 43.324219 94.402344 43.324219 94.128906 Z M 43.324219 94.128906 " fill-opacity="1" fill-rule="nonzero"/><path fill="#010101" d="M 43.820312 87.6875 C 43.546875 87.6875 43.324219 87.910156 43.324219 88.183594 C 43.324219 88.457031 43.546875 88.679688 43.820312 88.679688 L 85.480469 88.679688 C 85.753906 88.679688 85.976562 88.457031 85.976562 88.183594 C 85.976562 87.910156 85.753906 87.6875 85.480469 87.6875 Z M 43.820312 87.6875 " fill-opacity="1" fill-rule="nonzero"/><g clip-path="url(#2190dce09b)"><path stroke-linecap="butt" transform="matrix(0.123985, 0, 0, 0.123855, -5.52491, -5.945046)" fill="none" stroke-linejoin="miter" d="M 173.98652 52.005428 L 785.985329 52.005428 C 801.454643 52.005428 813.993923 64.526356 813.993923 80.011936 L 813.993923 834.73686 C 813.993923 842.180031 811.06389 849.307814 805.802434 854.543264 L 720.547928 939.792803 C 715.286471 945.059793 708.166176 947.992907 700.730823 947.992907 L 173.98652 947.992907 C 158.548712 947.992907 146.009431 935.47198 146.009431 919.986399 L 146.009431 80.011936 C 146.009431 64.526356 158.548712 52.005428 173.98652 52.005428 Z M 173.98652 52.005428 " stroke="#010101" stroke-width="8" stroke-opacity="1" stroke-miterlimit="4"/></g><path fill="#010101" d="M 95.875 97.84375 C 95.78125 98.75 95.382812 99.597656 94.734375 100.246094 L 84.164062 110.804688 C 83.515625 111.453125 82.664062 111.851562 81.761719 111.945312 L 81.761719 99.828125 C 81.761719 98.734375 82.648438 97.84375 83.746094 97.84375 Z M 95.875 97.84375 " fill-opacity="0.2" fill-rule="nonzero"/><g clip-path="url(#f27ac83498)"><path stroke-linecap="butt" transform="matrix(0.123985, 0, 0, 0.123855, -5.52491, -5.945046)" fill="none" stroke-linejoin="miter" d="M 720.01233 841.990798 L 813.048751 841.990798 C 811.788522 846.690088 809.29957 851.042451 805.802434 854.543264 L 720.547928 939.792803 C 717.050792 943.293617 712.703001 945.785187 708.008647 947.046741 L 708.008647 854.007104 C 708.008647 847.383943 713.364621 841.990798 720.01233 841.990798 Z M 720.01233 841.990798 " stroke="#010101" stroke-width="8" stroke-opacity="1" stroke-miterlimit="4"/></g><path fill="#008ff6" d="M 30.429688 98.09375 C 30.429688 98.09375 38.367188 90.582031 38.367188 86.203125 C 38.367188 81.824219 34.8125 78.277344 30.429688 78.277344 C 26.046875 78.277344 22.496094 81.824219 22.496094 86.203125 C 22.496094 90.582031 30.429688 98.09375 30.429688 98.09375 Z M 30.429688 89.175781 C 32.347656 89.175781 33.902344 87.625 33.902344 85.707031 C 33.902344 83.792969 32.347656 82.238281 30.429688 82.238281 C 28.511719 82.238281 26.960938 83.792969 26.960938 85.707031 C 26.960938 87.625 28.511719 89.175781 30.429688 89.175781 Z M 30.429688 89.175781 " fill-opacity="1" fill-rule="evenodd"/></svg>