<svg xmlns="http://www.w3.org/2000/svg" xmlns:xlink="http://www.w3.org/1999/xlink" width="150" zoomAndPan="magnify" viewBox="0 0 112.5 112.499997" height="150" preserveAspectRatio="xMidYMid meet" version="1.0"><defs><clipPath id="1dfe660177"><path d="M 0 0 L 112.003906 0 L 112.003906 112.003906 L 0 112.003906 Z M 0 0 " clip-rule="nonzero"/></clipPath><clipPath id="86aa4e49cc"><path d="M 75 56 L 112 56 L 112 112.003906 L 75 112.003906 Z M 75 56 " clip-rule="nonzero"/></clipPath><clipPath id="5548941000"><path d="M 0 56 L 37 56 L 37 112.003906 L 0 112.003906 Z M 0 56 " clip-rule="nonzero"/></clipPath><clipPath id="833634eb83"><path d="M 10 100 L 37 100 L 37 112.003906 L 10 112.003906 Z M 10 100 " clip-rule="nonzero"/></clipPath><clipPath id="af0d44a973"><path d="M 75 100 L 101 100 L 101 112.003906 L 75 112.003906 Z M 75 100 " clip-rule="nonzero"/></clipPath></defs><g clip-path="url(#1dfe660177)"><path fill="#ffffff" d="M 0 0 L 112.003906 0 L 112.003906 112.003906 L 0 112.003906 Z M 0 0 " fill-opacity="1" fill-rule="nonzero"/><path fill="#ffffff" d="M 0 0 L 112.003906 0 L 112.003906 112.003906 L 0 112.003906 Z M 0 0 " fill-opacity="1" fill-rule="nonzero"/></g><path fill="#655f68" d="M 92.863281 5.792969 L 92.863281 67.871094 L 82.585938 67.871094 C 76.796875 47.175781 76.796875 26.484375 82.585938 5.792969 Z M 92.863281 5.792969 " fill-opacity="1" fill-rule="nonzero"/><path fill="#86cacf" d="M 66.351562 0 L 66.351562 36.429688 C 56.980469 59.277344 64.515625 66.394531 78.105469 67.871094 L 82.585938 67.871094 L 82.585938 0 Z M 66.351562 0 " fill-opacity="1" fill-rule="nonzero"/><path fill="#15aab5" d="M 78.363281 4.964844 L 70.578125 4.964844 C 70.078125 4.964844 69.675781 5.367188 69.675781 5.867188 C 69.675781 6.367188 70.078125 6.769531 70.578125 6.769531 L 78.363281 6.769531 C 78.859375 6.769531 79.265625 6.367188 79.265625 5.867188 C 79.265625 5.367188 78.859375 4.964844 78.363281 4.964844 Z M 78.363281 4.964844 " fill-opacity="1" fill-rule="nonzero"/><path fill="#15aab5" d="M 78.363281 9.574219 L 70.578125 9.574219 C 70.078125 9.574219 69.675781 9.980469 69.675781 10.476562 C 69.675781 10.976562 70.078125 11.382812 70.578125 11.382812 L 78.363281 11.382812 C 78.859375 11.382812 79.265625 10.976562 79.265625 10.476562 C 79.265625 9.980469 78.859375 9.574219 78.363281 9.574219 Z M 78.363281 9.574219 " fill-opacity="1" fill-rule="nonzero"/><path fill="#15aab5" d="M 78.363281 14.1875 L 70.578125 14.1875 C 70.078125 14.1875 69.675781 14.59375 69.675781 15.089844 C 69.675781 15.589844 70.078125 15.996094 70.578125 15.996094 L 78.363281 15.996094 C 78.859375 15.996094 79.265625 15.589844 79.265625 15.089844 C 79.265625 14.59375 78.859375 14.1875 78.363281 14.1875 Z M 78.363281 14.1875 " fill-opacity="1" fill-rule="nonzero"/><path fill="#15aab5" d="M 78.363281 18.796875 L 70.578125 18.796875 C 70.078125 18.796875 69.675781 19.203125 69.675781 19.703125 C 69.675781 20.199219 70.078125 20.605469 70.578125 20.605469 L 78.363281 20.605469 C 78.859375 20.605469 79.265625 20.199219 79.265625 19.703125 C 79.265625 19.203125 78.859375 18.796875 78.363281 18.796875 Z M 78.363281 18.796875 " fill-opacity="1" fill-rule="nonzero"/><path fill="#15aab5" d="M 78.363281 23.410156 L 70.578125 23.410156 C 70.078125 23.410156 69.675781 23.8125 69.675781 24.3125 C 69.675781 24.8125 70.078125 25.214844 70.578125 25.214844 L 78.363281 25.214844 C 78.859375 25.214844 79.265625 24.8125 79.265625 24.3125 C 79.265625 23.8125 78.859375 23.410156 78.363281 23.410156 Z M 78.363281 23.410156 " fill-opacity="1" fill-rule="nonzero"/><path fill="#15aab5" d="M 78.363281 28.023438 L 70.578125 28.023438 C 70.078125 28.023438 69.675781 28.425781 69.675781 28.925781 C 69.675781 29.425781 70.078125 29.828125 70.578125 29.828125 L 78.363281 29.828125 C 78.859375 29.828125 79.265625 29.425781 79.265625 28.925781 C 79.265625 28.425781 78.859375 28.023438 78.363281 28.023438 Z M 78.363281 28.023438 " fill-opacity="1" fill-rule="nonzero"/><path fill="#15aab5" d="M 78.363281 32.632812 L 70.578125 32.632812 C 70.078125 32.632812 69.675781 33.039062 69.675781 33.539062 C 69.675781 34.035156 70.078125 34.441406 70.578125 34.441406 L 78.363281 34.441406 C 78.859375 34.441406 79.265625 34.035156 79.265625 33.539062 C 79.265625 33.039062 78.859375 32.632812 78.363281 32.632812 Z M 78.363281 32.632812 " fill-opacity="1" fill-rule="nonzero"/><path fill="#15aab5" d="M 78.363281 37.246094 L 71.617188 37.246094 C 71.121094 37.246094 70.714844 37.652344 70.714844 38.152344 C 70.714844 38.648438 71.121094 39.054688 71.617188 39.054688 L 78.363281 39.054688 C 78.859375 39.054688 79.265625 38.648438 79.265625 38.152344 C 79.265625 37.652344 78.859375 37.246094 78.363281 37.246094 Z M 78.363281 37.246094 " fill-opacity="1" fill-rule="nonzero"/><path fill="#15aab5" d="M 78.363281 41.859375 L 72.941406 41.859375 C 72.441406 41.859375 72.039062 42.261719 72.039062 42.761719 C 72.039062 43.261719 72.441406 43.664062 72.941406 43.664062 L 78.363281 43.664062 C 78.859375 43.664062 79.265625 43.261719 79.265625 42.761719 C 79.265625 42.261719 78.859375 41.859375 78.363281 41.859375 Z M 78.363281 41.859375 " fill-opacity="1" fill-rule="nonzero"/><path fill="#15aab5" d="M 78.363281 46.472656 L 70.578125 46.472656 C 70.078125 46.472656 69.675781 46.875 69.675781 47.375 C 69.675781 47.875 70.078125 48.277344 70.578125 48.277344 L 78.363281 48.277344 C 78.859375 48.277344 79.265625 47.875 79.265625 47.375 C 79.265625 46.875 78.859375 46.472656 78.363281 46.472656 Z M 78.363281 46.472656 " fill-opacity="1" fill-rule="nonzero"/><path fill="#5d5560" d="M 87.726562 14.074219 C 88.222656 14.074219 88.625 13.667969 88.625 13.167969 L 88.625 10.476562 C 88.625 9.980469 88.222656 9.574219 87.726562 9.574219 C 87.226562 9.574219 86.824219 9.980469 86.824219 10.476562 L 86.824219 13.167969 C 86.824219 13.667969 87.226562 14.074219 87.726562 14.074219 Z M 87.726562 14.074219 " fill-opacity="1" fill-rule="nonzero"/><path fill="#5d5560" d="M 87.726562 21.082031 C 88.222656 21.082031 88.625 20.675781 88.625 20.179688 L 88.625 17.488281 C 88.625 16.988281 88.222656 16.582031 87.726562 16.582031 C 87.226562 16.582031 86.824219 16.988281 86.824219 17.488281 L 86.824219 20.179688 C 86.824219 20.675781 87.226562 21.082031 87.726562 21.082031 Z M 87.726562 21.082031 " fill-opacity="1" fill-rule="nonzero"/><path fill="#5d5560" d="M 87.726562 28.089844 C 88.222656 28.089844 88.625 27.6875 88.625 27.1875 L 88.625 24.496094 C 88.625 23.996094 88.222656 23.59375 87.726562 23.59375 C 87.226562 23.59375 86.824219 23.996094 86.824219 24.496094 L 86.824219 27.1875 C 86.824219 27.6875 87.226562 28.089844 87.726562 28.089844 Z M 87.726562 28.089844 " fill-opacity="1" fill-rule="nonzero"/><path fill="#5d5560" d="M 87.726562 35.101562 C 88.222656 35.101562 88.625 34.695312 88.625 34.195312 L 88.625 31.503906 C 88.625 31.007812 88.222656 30.601562 87.726562 30.601562 C 87.226562 30.601562 86.824219 31.007812 86.824219 31.503906 L 86.824219 34.195312 C 86.824219 34.695312 87.226562 35.101562 87.726562 35.101562 Z M 87.726562 35.101562 " fill-opacity="1" fill-rule="nonzero"/><path fill="#5d5560" d="M 87.726562 42.109375 C 88.222656 42.109375 88.625 41.703125 88.625 41.207031 L 88.625 38.515625 C 88.625 38.015625 88.222656 37.609375 87.726562 37.609375 C 87.226562 37.609375 86.824219 38.015625 86.824219 38.515625 L 86.824219 41.207031 C 86.824219 41.703125 87.226562 42.109375 87.726562 42.109375 Z M 87.726562 42.109375 " fill-opacity="1" fill-rule="nonzero"/><path fill="#5d5560" d="M 87.726562 49.117188 C 88.222656 49.117188 88.625 48.714844 88.625 48.214844 L 88.625 45.523438 C 88.625 45.023438 88.222656 44.621094 87.726562 44.621094 C 87.226562 44.621094 86.824219 45.023438 86.824219 45.523438 L 86.824219 48.214844 C 86.824219 48.714844 87.226562 49.117188 87.726562 49.117188 Z M 87.726562 49.117188 " fill-opacity="1" fill-rule="nonzero"/><path fill="#5d5560" d="M 87.726562 56.128906 C 88.222656 56.128906 88.625 55.722656 88.625 55.222656 L 88.625 52.53125 C 88.625 52.035156 88.222656 51.628906 87.726562 51.628906 C 87.226562 51.628906 86.824219 52.035156 86.824219 52.53125 L 86.824219 55.222656 C 86.824219 55.722656 87.226562 56.128906 87.726562 56.128906 Z M 87.726562 56.128906 " fill-opacity="1" fill-rule="nonzero"/><path fill="#9e4949" d="M 55.984375 9.667969 L 55.984375 26.105469 C 52.714844 26.261719 48.222656 24.316406 48.222656 18.574219 L 48.222656 9.667969 Z M 55.984375 9.667969 " fill-opacity="1" fill-rule="nonzero"/><path fill="#ad6a6a" d="M 55.984375 26.105469 C 53.609375 23.804688 50.832031 21.109375 48.222656 18.574219 C 43.363281 13.859375 39.082031 9.703125 39.054688 9.667969 C 39.007812 9.726562 25.308594 23.019531 19.101562 29.039062 L 19.101562 67.871094 L 29.703125 67.871094 C 44.339844 62.253906 54.898438 52.453125 59.007812 36.03125 L 59.007812 29.042969 C 58.128906 28.191406 57.101562 27.191406 55.984375 26.105469 Z M 55.984375 26.105469 " fill-opacity="1" fill-rule="nonzero"/><path fill="#c68642" d="M 42.636719 40.589844 L 29.703125 40.589844 L 29.703125 67.871094 L 33.855469 67.871094 C 42.371094 66.648438 47.597656 59.5 47.695312 49.640625 C 48.921875 45.316406 47.167969 42.332031 42.636719 40.589844 Z M 42.636719 40.589844 " fill-opacity="1" fill-rule="nonzero"/><path fill="#604533" d="M 46.003906 45.660156 C 52.65625 43.070312 59.3125 43.070312 65.964844 45.660156 C 65.308594 46.925781 64.742188 48.253906 64.273438 49.640625 C 58.746094 52.632812 53.21875 52.632812 47.695312 49.640625 C 47.222656 48.253906 46.65625 46.925781 46.003906 45.660156 Z M 46.003906 45.660156 " fill-opacity="1" fill-rule="nonzero"/><path fill="#f1c27d" d="M 42.636719 40.589844 C 41.929688 39.742188 41.167969 38.925781 40.347656 38.152344 C 42.996094 36.964844 45.710938 36.21875 48.507812 36.03125 C 49.914062 37.269531 50.875 38.894531 51.492188 40.828125 L 52.957031 36.03125 L 59.007812 36.03125 L 60.46875 40.828125 C 61.089844 38.894531 62.050781 37.269531 63.457031 36.03125 C 64.433594 36.097656 65.398438 36.230469 66.351562 36.429688 C 68.140625 36.792969 69.894531 37.378906 71.617188 38.152344 C 69.949219 39.734375 68.507812 41.472656 67.296875 43.355469 C 66.816406 44.101562 66.371094 44.867188 65.964844 45.660156 L 46.003906 45.660156 C 45.582031 44.851562 45.128906 44.066406 44.636719 43.304688 C 44.027344 42.363281 43.359375 41.457031 42.636719 40.589844 Z M 42.636719 40.589844 " fill-opacity="1" fill-rule="nonzero"/><path fill="#f1c27d" d="M 78.105469 67.871094 C 77.1875 59.570312 71.726562 52.640625 64.273438 49.640625 L 47.695312 49.640625 C 40.238281 52.640625 34.777344 59.570312 33.855469 67.871094 C 33.765625 68.6875 33.71875 69.519531 33.71875 70.359375 C 33.71875 82.6875 43.6875 92.679688 55.984375 92.679688 C 68.277344 92.679688 78.246094 82.6875 78.246094 70.359375 C 78.246094 69.519531 78.195312 68.6875 78.105469 67.871094 Z M 78.105469 67.871094 " fill-opacity="1" fill-rule="nonzero"/><g clip-path="url(#86aa4e49cc)"><path fill="#fec4b9" d="M 103.964844 60.003906 L 104.019531 59.480469 C 104.238281 57.488281 105.921875 56 107.886719 56 C 107.996094 56 108.109375 56.003906 108.21875 56.015625 C 110.355469 56.195312 111.945312 58.078125 111.769531 60.21875 C 111.367188 65.214844 110.652344 73.515625 110.1875 75.664062 C 109.511719 78.792969 106.414062 90.085938 105.082031 93.5 C 103.746094 96.914062 93.667969 112.003906 93.667969 112.003906 L 75.125 112.003906 L 75.125 101.730469 C 75.125 98.113281 76.0625 94.558594 77.851562 91.414062 L 85.996094 77.074219 C 86.753906 75.742188 88.140625 74.992188 89.566406 74.992188 C 90.226562 74.992188 90.898438 75.15625 91.519531 75.492188 C 91.929688 75.710938 92.285156 75.996094 92.582031 76.320312 L 94.855469 73.507812 C 95.65625 72.515625 96.238281 71.367188 96.5625 70.136719 L 98.589844 62.5 C 99.089844 60.621094 100.898438 59.410156 102.824219 59.664062 C 103.230469 59.71875 103.613281 59.832031 103.964844 60.003906 Z M 103.964844 60.003906 " fill-opacity="1" fill-rule="nonzero"/></g><g clip-path="url(#5548941000)"><path fill="#fec4b9" d="M 19.261719 76.320312 C 19.558594 75.996094 19.917969 75.710938 20.328125 75.492188 C 22.289062 74.425781 24.742188 75.128906 25.847656 77.074219 L 33.996094 91.414062 C 35.78125 94.558594 36.71875 98.113281 36.71875 101.730469 L 36.71875 112.003906 L 18.175781 112.003906 C 18.175781 112.003906 8.097656 96.914062 6.765625 93.5 C 5.429688 90.085938 2.332031 78.792969 1.65625 75.664062 C 1.191406 73.515625 0.476562 65.214844 0.0742188 60.21875 C 0.0664062 60.109375 0.0625 60.003906 0.0625 59.898438 C 0.0625 57.890625 1.597656 56.1875 3.625 56.015625 C 5.734375 55.835938 7.59375 57.375 7.824219 59.480469 L 7.882812 60.003906 C 8.234375 59.832031 8.617188 59.71875 9.019531 59.664062 C 10.945312 59.410156 12.753906 60.621094 13.253906 62.5 L 15.28125 70.136719 C 15.605469 71.367188 16.1875 72.515625 16.988281 73.507812 Z M 19.261719 76.320312 " fill-opacity="1" fill-rule="nonzero"/></g><path fill="#a35757" d="M 59.007812 29.042969 L 59.007812 34.601562 L 39.054688 15.613281 L 19.101562 34.601562 L 19.101562 29.039062 C 25.308594 23.019531 39.007812 9.726562 39.054688 9.667969 C 39.082031 9.703125 43.363281 13.859375 48.222656 18.574219 C 50.832031 21.109375 53.609375 23.804688 55.984375 26.105469 C 57.101562 27.191406 58.128906 28.191406 59.007812 29.042969 Z M 59.007812 29.042969 " fill-opacity="1" fill-rule="nonzero"/><g clip-path="url(#833634eb83)"><path fill="#f7b6ad" d="M 36.71875 109.753906 L 36.71875 112.003906 L 18.175781 112.003906 C 18.175781 112.003906 13.839844 105.511719 10.480469 100.078125 C 10.765625 100.367188 19.980469 109.632812 36.71875 109.753906 Z M 36.71875 109.753906 " fill-opacity="1" fill-rule="nonzero"/></g><path fill="#e0b377" d="M 64.273438 49.640625 C 71.726562 52.640625 77.1875 59.570312 78.105469 67.871094 C 78.195312 68.6875 78.246094 69.519531 78.246094 70.359375 C 78.246094 82.6875 68.277344 92.679688 55.984375 92.679688 C 50.207031 92.679688 44.945312 90.476562 40.988281 86.859375 C 43.46875 87.816406 46.167969 88.34375 48.992188 88.34375 C 61.285156 88.34375 71.253906 78.351562 71.253906 66.023438 C 71.253906 65.183594 71.207031 64.351562 71.113281 63.535156 C 70.515625 58.105469 67.972656 53.261719 64.195312 49.722656 L 64.195312 49.640625 Z M 64.273438 49.640625 " fill-opacity="1" fill-rule="nonzero"/><g clip-path="url(#af0d44a973)"><path fill="#f7b6ad" d="M 100.882812 100.855469 C 97.605469 106.109375 93.667969 112.003906 93.667969 112.003906 L 75.125 112.003906 L 75.125 109.753906 C 75.125 109.753906 93.453125 110.347656 100.882812 100.855469 Z M 100.882812 100.855469 " fill-opacity="1" fill-rule="nonzero"/></g><path fill="#604533" d="M 59.738281 64.433594 C 59.738281 64.933594 60.144531 65.335938 60.640625 65.335938 C 61.140625 65.335938 61.542969 64.933594 61.542969 64.433594 C 61.542969 61.667969 59.523438 59.367188 56.882812 58.933594 L 56.882812 57.074219 C 56.882812 56.578125 56.480469 56.171875 55.984375 56.171875 C 55.484375 56.171875 55.082031 56.578125 55.082031 57.074219 L 55.082031 58.933594 C 52.441406 59.363281 50.421875 61.667969 50.421875 64.433594 C 50.421875 67.199219 52.441406 69.5 55.082031 69.929688 L 55.082031 77.425781 C 53.445312 77.019531 52.222656 75.539062 52.222656 73.773438 C 52.222656 73.273438 51.820312 72.871094 51.324219 72.871094 C 50.824219 72.871094 50.421875 73.273438 50.421875 73.773438 C 50.421875 76.539062 52.441406 78.839844 55.082031 79.269531 L 55.082031 81.128906 C 55.082031 81.628906 55.484375 82.03125 55.984375 82.03125 C 56.480469 82.03125 56.882812 81.628906 56.882812 81.128906 L 56.882812 79.269531 C 59.523438 78.839844 61.542969 76.539062 61.542969 73.773438 C 61.542969 71.007812 59.523438 68.707031 56.882812 68.273438 L 56.882812 60.777344 C 58.519531 61.183594 59.738281 62.667969 59.738281 64.433594 Z M 55.082031 68.085938 C 53.445312 67.679688 52.222656 66.199219 52.222656 64.433594 C 52.222656 62.667969 53.445312 61.183594 55.082031 60.777344 Z M 59.738281 73.773438 C 59.738281 75.539062 58.519531 77.019531 56.882812 77.425781 L 56.882812 70.121094 C 58.519531 70.527344 59.738281 72.007812 59.738281 73.773438 Z M 59.738281 73.773438 " fill-opacity="1" fill-rule="nonzero"/><path fill="#f7b6ad" d="M 9.640625 77.332031 C 8.660156 75.585938 8.019531 73.695312 7.734375 71.710938 L 6.609375 63.914062 C 6.585938 63.769531 6.578125 63.628906 6.578125 63.488281 C 6.578125 62.988281 6.171875 62.585938 5.675781 62.585938 C 5.179688 62.585938 4.773438 62.988281 4.773438 63.488281 C 4.773438 63.714844 4.792969 63.945312 4.824219 64.171875 L 5.949219 71.96875 C 6.265625 74.175781 6.980469 76.277344 8.070312 78.214844 L 15.265625 91.042969 C 15.429688 91.335938 15.734375 91.503906 16.050781 91.503906 C 16.199219 91.503906 16.351562 91.464844 16.492188 91.386719 C 16.925781 91.140625 17.078125 90.589844 16.835938 90.15625 Z M 9.640625 77.332031 " fill-opacity="1" fill-rule="nonzero"/><path fill="#f7b6ad" d="M 19.402344 80.523438 C 19.183594 80.082031 19.074219 79.605469 19.074219 79.117188 C 19.074219 78.617188 18.671875 78.210938 18.171875 78.210938 C 17.675781 78.210938 17.273438 78.617188 17.273438 79.117188 C 17.273438 79.886719 17.445312 80.628906 17.785156 81.320312 L 25.265625 96.609375 C 25.421875 96.929688 25.742188 97.113281 26.074219 97.113281 C 26.207031 97.113281 26.34375 97.085938 26.472656 97.023438 C 26.917969 96.800781 27.101562 96.261719 26.882812 95.8125 Z M 19.402344 80.523438 " fill-opacity="1" fill-rule="nonzero"/><path fill="#f7b6ad" d="M 93.648438 80.113281 C 93.199219 79.894531 92.660156 80.078125 92.441406 80.527344 L 84.960938 95.8125 C 84.742188 96.261719 84.925781 96.800781 85.375 97.023438 C 85.5 97.085938 85.636719 97.113281 85.769531 97.113281 C 86.101562 97.113281 86.421875 96.929688 86.578125 96.609375 L 94.058594 81.320312 C 94.277344 80.875 94.09375 80.332031 93.648438 80.113281 Z M 93.648438 80.113281 " fill-opacity="1" fill-rule="nonzero"/><path fill="#f7b6ad" d="M 106.167969 62.585938 C 105.671875 62.585938 105.265625 62.988281 105.265625 63.488281 C 105.265625 63.628906 105.257812 63.769531 105.234375 63.914062 L 104.113281 71.714844 C 103.828125 73.695312 103.183594 75.585938 102.203125 77.332031 L 95.011719 90.15625 C 94.765625 90.59375 94.921875 91.140625 95.355469 91.386719 C 95.492188 91.464844 95.644531 91.503906 95.796875 91.503906 C 96.109375 91.503906 96.414062 91.335938 96.582031 91.042969 L 103.773438 78.21875 C 104.863281 76.277344 105.578125 74.175781 105.894531 71.972656 L 107.019531 64.171875 C 107.050781 63.945312 107.070312 63.714844 107.070312 63.488281 C 107.070312 62.988281 106.664062 62.585938 106.167969 62.585938 Z M 106.167969 62.585938 " fill-opacity="1" fill-rule="nonzero"/><path fill="#604533" d="M 59.632812 28.390625 C 59.101562 27.875 58.515625 27.304688 57.886719 26.695312 L 55.792969 24.664062 C 53.613281 22.550781 51.164062 20.171875 48.847656 17.925781 C 42.976562 12.226562 39.898438 9.238281 39.707031 9.042969 C 39.539062 8.871094 39.3125 8.769531 39.070312 8.765625 C 38.820312 8.761719 38.582031 8.863281 38.410156 9.039062 C 38.023438 9.425781 24.832031 22.226562 18.476562 28.390625 C 16.660156 30.152344 15.488281 31.289062 15.484375 31.292969 C 15.128906 31.636719 15.117188 32.210938 15.464844 32.566406 C 15.808594 32.925781 16.378906 32.9375 16.738281 32.589844 C 16.738281 32.589844 17.914062 31.453125 19.730469 29.6875 C 33.28125 16.539062 37.640625 12.304688 39.054688 10.929688 C 39.992188 11.84375 42.222656 14.011719 47.59375 19.222656 C 49.910156 21.472656 52.359375 23.847656 54.539062 25.960938 L 56.632812 27.992188 C 57.261719 28.605469 57.851562 29.175781 58.382812 29.691406 L 61.371094 32.589844 C 61.546875 32.757812 61.773438 32.84375 61.996094 32.84375 C 62.234375 32.84375 62.46875 32.753906 62.644531 32.570312 C 62.992188 32.210938 62.980469 31.636719 62.625 31.292969 Z M 59.632812 28.390625 " fill-opacity="1" fill-rule="nonzero"/></svg>